<svg width="25" height="24" viewBox="0 0 25 24" fill="none" xmlns="http://www.w3.org/2000/svg">
<path d="M20.7895 10.7959C20.7895 13.2003 19.7997 15.5063 18.0378 17.2065C16.276 18.9067 13.8864 19.8618 11.3947 19.8618C8.9031 19.8618 6.51351 18.9067 4.75165 17.2065C2.9898 15.5063 2 13.2003 2 10.7959C2 8.39147 2.9898 6.08552 4.75165 4.38533C6.51351 2.68514 8.9031 1.72998 11.3947 1.72998C13.8864 1.72998 16.276 2.68514 18.0378 4.38533C19.7997 6.08552 20.7895 8.39147 20.7895 10.7959Z" fill="#F4F3EE"/>
<path d="M23 21.995L18.0418 17.2018M20.7895 10.7959C20.7895 13.2003 19.7997 15.5063 18.0378 17.2065C16.276 18.9067 13.8864 19.8618 11.3947 19.8618C8.9031 19.8618 6.51351 18.9067 4.75165 17.2065C2.9898 15.5063 2 13.2003 2 10.7959C2 8.39147 2.9898 6.08552 4.75165 4.38533C6.51351 2.68514 8.9031 1.72998 11.3947 1.72998C13.8864 1.72998 16.276 2.68514 18.0378 4.38533C19.7997 6.08552 20.7895 8.39147 20.7895 10.7959Z" stroke="#90A955" stroke-width="2.75388" stroke-linecap="round"/>
</svg>
