<svg width="44" height="62" viewBox="0 0 44 62" fill="none" xmlns="http://www.w3.org/2000/svg">
<rect width="44" height="62" rx="10" fill="#90A955"/>
<path d="M38.2496 23.9397L40 23.5336L39.4844 21.31L38.089 21.6336C37.9197 20.4321 37.6192 19.2391 37.1962 18.0808C38.4516 14.5304 38.5874 10.4182 37.5689 6.41952L37.2818 5.29248L36.1604 5.60071C35.6835 5.73176 31.5497 6.90856 29.5706 8.81155C29.2826 8.64489 28.9904 8.48691 28.6932 8.3396C26.7128 7.3583 24.6291 6.86058 22.4999 6.86058C20.3708 6.86058 18.2871 7.35816 16.3066 8.3396C16.0094 8.48691 15.7172 8.64496 15.4292 8.81155C13.4502 6.90856 9.31621 5.73183 8.8394 5.60071L7.71804 5.29248L7.43086 6.41959C6.41224 10.4183 6.548 14.5304 7.80349 18.0809C7.38048 19.2392 7.08004 20.4322 6.91071 21.6336L5.5157 21.31L5 23.5338L6.75014 23.9397C6.75629 26.1474 7.22011 28.1784 8.11555 29.9756L5 30.698L5.5157 32.9217L9.39893 32.0211C9.98668 32.7814 10.6691 33.4838 11.4441 34.122C14.0231 36.2459 17.5102 37.5003 21.3585 37.7074V30.1828C19.8941 29.5156 18.4513 27.7785 18.4513 26.3967C18.4513 24.1115 20.9857 24.1115 22.4999 24.1115C24.0141 24.1115 26.5485 24.1115 26.5485 26.3967C26.5485 27.7785 25.1056 29.5157 23.6412 30.1828V37.7074C27.4894 37.5003 30.9764 36.2459 33.5554 34.122C34.3303 33.4838 35.0128 32.7814 35.6006 32.021L39.4842 32.9217L39.9999 30.698L36.884 29.9754C37.7796 28.1783 38.2434 26.1473 38.2496 23.9397ZM18.7576 20.5685C17.944 20.5685 17.2819 19.8998 17.2819 19.075C17.2819 18.2501 17.944 17.582 18.7576 17.582C19.5723 17.582 20.2342 18.2501 20.2342 19.075C20.2342 19.8999 19.5723 20.5685 18.7576 20.5685ZM26.2313 20.5797C25.4097 20.5797 24.7433 19.9061 24.7433 19.075C24.7433 18.244 25.4097 17.5704 26.2313 17.5704C27.0517 17.5704 27.7181 18.244 27.7181 19.075C27.7181 19.906 27.0518 20.5797 26.2313 20.5797Z" fill="#F4F3EE"/>
<path d="M10.6399 58.12C9.58992 58.12 8.63992 57.89 7.78992 57.43C6.94992 56.96 6.28992 56.32 5.80992 55.51C5.32992 54.69 5.08992 53.77 5.08992 52.75C5.08992 51.73 5.32992 50.815 5.80992 50.005C6.28992 49.185 6.95492 48.545 7.80492 48.085C8.65492 47.615 9.60492 47.38 10.6549 47.38C11.4749 47.38 12.2249 47.52 12.9049 47.8C13.5849 48.07 14.1649 48.475 14.6449 49.015L13.6699 49.96C12.8799 49.13 11.8949 48.715 10.7149 48.715C9.93492 48.715 9.22992 48.89 8.59992 49.24C7.96992 49.59 7.47492 50.075 7.11492 50.695C6.76492 51.305 6.58992 51.99 6.58992 52.75C6.58992 53.51 6.76492 54.2 7.11492 54.82C7.47492 55.43 7.96992 55.91 8.59992 56.26C9.22992 56.61 9.93492 56.785 10.7149 56.785C11.8849 56.785 12.8699 56.365 13.6699 55.525L14.6449 56.47C14.1649 57.01 13.5799 57.42 12.8899 57.7C12.2099 57.98 11.4599 58.12 10.6399 58.12ZM23.5129 50.05V58H22.1329V56.74C21.8129 57.18 21.4079 57.515 20.9179 57.745C20.4279 57.975 19.8879 58.09 19.2979 58.09C18.5279 58.09 17.8379 57.92 17.2279 57.58C16.6179 57.24 16.1379 56.765 15.7879 56.155C15.4479 55.535 15.2779 54.825 15.2779 54.025C15.2779 53.225 15.4479 52.52 15.7879 51.91C16.1379 51.3 16.6179 50.825 17.2279 50.485C17.8379 50.145 18.5279 49.975 19.2979 49.975C19.8679 49.975 20.3929 50.085 20.8729 50.305C21.3529 50.515 21.7529 50.83 22.0729 51.25V50.05H23.5129ZM19.4179 56.83C19.9179 56.83 20.3729 56.715 20.7829 56.485C21.1929 56.245 21.5129 55.915 21.7429 55.495C21.9729 55.065 22.0879 54.575 22.0879 54.025C22.0879 53.475 21.9729 52.99 21.7429 52.57C21.5129 52.14 21.1929 51.81 20.7829 51.58C20.3729 51.35 19.9179 51.235 19.4179 51.235C18.9079 51.235 18.4479 51.35 18.0379 51.58C17.6379 51.81 17.3179 52.14 17.0779 52.57C16.8479 52.99 16.7329 53.475 16.7329 54.025C16.7329 54.575 16.8479 55.065 17.0779 55.495C17.3179 55.915 17.6379 56.245 18.0379 56.485C18.4479 56.715 18.9079 56.83 19.4179 56.83ZM30.1975 57.535C29.9875 57.715 29.7275 57.855 29.4175 57.955C29.1075 58.045 28.7875 58.09 28.4575 58.09C27.6575 58.09 27.0375 57.875 26.5975 57.445C26.1575 57.015 25.9375 56.4 25.9375 55.6V48.31H27.3775V50.05H29.6575V51.235H27.3775V55.54C27.3775 55.97 27.4825 56.3 27.6925 56.53C27.9125 56.76 28.2225 56.875 28.6225 56.875C29.0625 56.875 29.4375 56.75 29.7475 56.5L30.1975 57.535ZM33.9854 58.09C33.3354 58.09 32.7104 58.005 32.1104 57.835C31.5104 57.655 31.0404 57.43 30.7004 57.16L31.3004 56.02C31.6504 56.27 32.0754 56.47 32.5754 56.62C33.0754 56.77 33.5804 56.845 34.0904 56.845C35.3504 56.845 35.9804 56.485 35.9804 55.765C35.9804 55.525 35.8954 55.335 35.7254 55.195C35.5554 55.055 35.3404 54.955 35.0804 54.895C34.8304 54.825 34.4704 54.75 34.0004 54.67C33.3604 54.57 32.8354 54.455 32.4254 54.325C32.0254 54.195 31.6804 53.975 31.3904 53.665C31.1004 53.355 30.9554 52.92 30.9554 52.36C30.9554 51.64 31.2554 51.065 31.8554 50.635C32.4554 50.195 33.2604 49.975 34.2704 49.975C34.8004 49.975 35.3304 50.04 35.8604 50.17C36.3904 50.3 36.8254 50.475 37.1654 50.695L36.5504 51.835C35.9004 51.415 35.1354 51.205 34.2554 51.205C33.6454 51.205 33.1804 51.305 32.8604 51.505C32.5404 51.705 32.3804 51.97 32.3804 52.3C32.3804 52.56 32.4704 52.765 32.6504 52.915C32.8304 53.065 33.0504 53.175 33.3104 53.245C33.5804 53.315 33.9554 53.395 34.4354 53.485C35.0754 53.595 35.5904 53.715 35.9804 53.845C36.3804 53.965 36.7204 54.175 37.0004 54.475C37.2804 54.775 37.4204 55.195 37.4204 55.735C37.4204 56.455 37.1104 57.03 36.4904 57.46C35.8804 57.88 35.0454 58.09 33.9854 58.09Z" fill="#F4F3EE"/>
</svg>
