<svg width="44" height="62" viewBox="0 0 44 62" fill="none" xmlns="http://www.w3.org/2000/svg">
<rect x="0.5" y="0.5" width="43" height="61" rx="9.5" fill="#F4F3EE" stroke="#90A955"/>
<path d="M4.01992 46.5H8.44492C9.55492 46.5 10.5399 46.72 11.3999 47.16C12.2599 47.6 12.9249 48.22 13.3949 49.02C13.8749 49.81 14.1149 50.72 14.1149 51.75C14.1149 52.78 13.8749 53.695 13.3949 54.495C12.9249 55.285 12.2599 55.9 11.3999 56.34C10.5399 56.78 9.55492 57 8.44492 57H4.01992V46.5ZM8.35492 55.695C9.20492 55.695 9.94992 55.53 10.5899 55.2C11.2399 54.87 11.7399 54.41 12.0899 53.82C12.4399 53.22 12.6149 52.53 12.6149 51.75C12.6149 50.97 12.4399 50.285 12.0899 49.695C11.7399 49.095 11.2399 48.63 10.5899 48.3C9.94992 47.97 9.20492 47.805 8.35492 47.805H5.51992V55.695H8.35492ZM19.3825 57.09C18.5925 57.09 17.8825 56.915 17.2525 56.565C16.6225 56.215 16.1275 55.735 15.7675 55.125C15.4175 54.505 15.2425 53.805 15.2425 53.025C15.2425 52.245 15.4175 51.55 15.7675 50.94C16.1275 50.32 16.6225 49.84 17.2525 49.5C17.8825 49.15 18.5925 48.975 19.3825 48.975C20.1725 48.975 20.8775 49.15 21.4975 49.5C22.1275 49.84 22.6175 50.32 22.9675 50.94C23.3275 51.55 23.5075 52.245 23.5075 53.025C23.5075 53.805 23.3275 54.505 22.9675 55.125C22.6175 55.735 22.1275 56.215 21.4975 56.565C20.8775 56.915 20.1725 57.09 19.3825 57.09ZM19.3825 55.83C19.8925 55.83 20.3475 55.715 20.7475 55.485C21.1575 55.245 21.4775 54.915 21.7075 54.495C21.9375 54.065 22.0525 53.575 22.0525 53.025C22.0525 52.475 21.9375 51.99 21.7075 51.57C21.4775 51.14 21.1575 50.81 20.7475 50.58C20.3475 50.35 19.8925 50.235 19.3825 50.235C18.8725 50.235 18.4125 50.35 18.0025 50.58C17.6025 50.81 17.2825 51.14 17.0425 51.57C16.8125 51.99 16.6975 52.475 16.6975 53.025C16.6975 53.575 16.8125 54.065 17.0425 54.495C17.2825 54.915 17.6025 55.245 18.0025 55.485C18.4125 55.715 18.8725 55.83 19.3825 55.83ZM32.879 49.05V55.92C32.879 57.31 32.534 58.335 31.844 58.995C31.154 59.665 30.124 60 28.754 60C28.004 60 27.289 59.895 26.609 59.685C25.929 59.485 25.379 59.195 24.959 58.815L25.649 57.705C26.019 58.025 26.474 58.275 27.014 58.455C27.564 58.645 28.129 58.74 28.709 58.74C29.639 58.74 30.324 58.52 30.764 58.08C31.214 57.64 31.439 56.97 31.439 56.07V55.44C31.099 55.85 30.679 56.16 30.179 56.37C29.689 56.57 29.154 56.67 28.574 56.67C27.814 56.67 27.124 56.51 26.504 56.19C25.894 55.86 25.414 55.405 25.064 54.825C24.714 54.235 24.539 53.565 24.539 52.815C24.539 52.065 24.714 51.4 25.064 50.82C25.414 50.23 25.894 49.775 26.504 49.455C27.124 49.135 27.814 48.975 28.574 48.975C29.174 48.975 29.729 49.085 30.239 49.305C30.759 49.525 31.184 49.85 31.514 50.28V49.05H32.879ZM28.739 55.41C29.259 55.41 29.724 55.3 30.134 55.08C30.554 54.86 30.879 54.555 31.109 54.165C31.349 53.765 31.469 53.315 31.469 52.815C31.469 52.045 31.214 51.425 30.704 50.955C30.194 50.475 29.539 50.235 28.739 50.235C27.929 50.235 27.269 50.475 26.759 50.955C26.249 51.425 25.994 52.045 25.994 52.815C25.994 53.315 26.109 53.765 26.339 54.165C26.579 54.555 26.904 54.86 27.314 55.08C27.734 55.3 28.209 55.41 28.739 55.41ZM37.6854 57.09C37.0354 57.09 36.4104 57.005 35.8104 56.835C35.2104 56.655 34.7404 56.43 34.4004 56.16L35.0004 55.02C35.3504 55.27 35.7754 55.47 36.2754 55.62C36.7754 55.77 37.2804 55.845 37.7904 55.845C39.0504 55.845 39.6804 55.485 39.6804 54.765C39.6804 54.525 39.5954 54.335 39.4254 54.195C39.2554 54.055 39.0404 53.955 38.7804 53.895C38.5304 53.825 38.1704 53.75 37.7004 53.67C37.0604 53.57 36.5354 53.455 36.1254 53.325C35.7254 53.195 35.3804 52.975 35.0904 52.665C34.8004 52.355 34.6554 51.92 34.6554 51.36C34.6554 50.64 34.9554 50.065 35.5554 49.635C36.1554 49.195 36.9604 48.975 37.9704 48.975C38.5004 48.975 39.0304 49.04 39.5604 49.17C40.0904 49.3 40.5254 49.475 40.8654 49.695L40.2504 50.835C39.6004 50.415 38.8354 50.205 37.9554 50.205C37.3454 50.205 36.8804 50.305 36.5604 50.505C36.2404 50.705 36.0804 50.97 36.0804 51.3C36.0804 51.56 36.1704 51.765 36.3504 51.915C36.5304 52.065 36.7504 52.175 37.0104 52.245C37.2804 52.315 37.6554 52.395 38.1354 52.485C38.7754 52.595 39.2904 52.715 39.6804 52.845C40.0804 52.965 40.4204 53.175 40.7004 53.475C40.9804 53.775 41.1204 54.195 41.1204 54.735C41.1204 55.455 40.8104 56.03 40.1904 56.46C39.5804 56.88 38.7454 57.09 37.6854 57.09Z" fill="#90A955"/>
<path d="M36.5515 9.12675C35.9409 6.80752 34.9129 5.29247 34.8695 5.2291L34.0264 4L29.062 9.81219C26.7395 9.10638 24.2892 9.00821 22.5 9.00821C20.7108 9.00821 18.2605 9.10638 15.9381 9.81226L10.9737 4L10.1306 5.2291C10.0871 5.29247 9.05912 6.80752 8.44853 9.12675C7.66479 12.1037 7.91642 15.0806 9.17362 17.7594C9.13472 18.1606 9.11421 18.5736 9.11421 18.9991C9.11421 22.0737 9.81982 23.9657 10.7132 26.361C11.0132 27.1652 11.3232 27.9967 11.6447 28.97C12.4724 31.4749 13.4719 34.0569 15.1682 35.9712C16.7709 37.78 18.8037 38.7767 21.3575 39.0001V31.644C19.9291 30.977 18.5288 29.2714 18.5288 27.9132C18.5288 25.6515 21.0148 25.6515 22.5001 25.6515C23.9854 25.6515 26.4713 25.6515 26.4713 27.9132C26.4713 29.2714 25.0712 30.9771 23.6426 31.644V39C26.1964 38.7767 28.2291 37.7799 29.8319 35.9711C31.5282 34.0568 32.5278 31.4749 33.3553 28.9699C33.6769 27.9967 33.9869 27.1651 34.2869 26.361C35.1802 23.9657 35.8859 22.0736 35.8859 18.999C35.8859 18.5735 35.8653 18.1605 35.8265 17.7594C37.0836 15.0806 37.3353 12.1037 36.5515 9.12675ZM19.0492 20.8859C18.299 20.8859 17.6885 20.2641 17.6885 19.4971C17.6885 18.7299 18.299 18.1086 19.0492 18.1086C19.8004 18.1086 20.4108 18.7299 20.4108 19.4971C20.4108 20.2641 19.8004 20.8859 19.0492 20.8859ZM25.9405 20.8963C25.1831 20.8963 24.5686 20.2698 24.5686 19.497C24.5686 18.7242 25.1831 18.0977 25.9405 18.0977C26.6971 18.0977 27.3115 18.7241 27.3115 19.497C27.3115 20.2698 26.6971 20.8963 25.9405 20.8963Z" fill="#90A955"/>
</svg>
