<?xml version="1.0" encoding="iso-8859-1"?>
<!-- Generator: Adobe Illustrator 19.0.0, SVG Export Plug-In . SVG Version: 6.00 Build 0)  -->
<svg version="1.1" id="Layer_1" xmlns="http://www.w3.org/2000/svg" xmlns:xlink="http://www.w3.org/1999/xlink" x="0px" y="0px"
	 viewBox="0 0 512 512" style="enable-background:new 0 0 512 512;" xml:space="preserve">
<g>
	<g>
		<path d="M486.394,291.69L512,285.75l-7.543-32.529l-20.412,4.734c-2.477-17.576-6.872-35.028-13.06-51.972
			c18.364-51.938,20.35-112.093,5.451-170.588l-4.2-16.487l-16.404,4.509c-6.976,1.917-67.448,19.132-96.399,46.97
			c-4.213-2.438-8.487-4.749-12.835-6.904c-28.971-14.355-59.453-21.636-90.599-21.636c-31.146,0-61.627,7.279-90.599,21.636
			c-4.348,2.155-8.622,4.467-12.835,6.904c-28.951-27.838-89.425-45.052-96.4-46.97l-16.404-4.509L35.56,35.396
			c-14.901,58.495-12.915,118.65,5.451,170.588c-6.188,16.944-10.583,34.396-13.06,51.971l-20.407-4.733L0,285.752l25.602,5.938
			c0.09,32.296,6.875,62.006,19.974,88.297L0,390.555l7.544,32.529l56.806-13.175c8.598,11.122,18.581,21.398,29.918,30.734
			c37.727,31.069,88.738,49.42,145.034,52.449V383.018c-21.422-9.76-42.529-35.172-42.529-55.386
			c0-33.428,37.075-33.428,59.225-33.428c22.151,0,59.226,0,59.226,33.428c0,20.215-21.108,45.627-42.53,55.386v110.074
			c56.294-3.03,107.304-21.38,145.03-52.449c11.337-9.336,21.321-19.612,29.919-30.735l56.812,13.176l7.543-32.529l-45.58-10.571
			C479.519,353.695,486.304,323.984,486.394,291.69z M201.254,242.374c-11.902,0-21.588-9.782-21.588-21.847
			c0-12.068,9.686-21.841,21.588-21.841c11.918,0,21.601,9.773,21.601,21.841C222.855,232.593,213.172,242.374,201.254,242.374z
			 M310.583,242.538c-12.018,0-21.766-9.854-21.766-22.011c0-12.157,9.748-22.011,21.766-22.011c12.002,0,21.75,9.854,21.75,22.011
			C332.334,232.683,322.587,242.538,310.583,242.538z"/>
	</g>
</g>
<g>
</g>
<g>
</g>
<g>
</g>
<g>
</g>
<g>
</g>
<g>
</g>
<g>
</g>
<g>
</g>
<g>
</g>
<g>
</g>
<g>
</g>
<g>
</g>
<g>
</g>
<g>
</g>
<g>
</g>
</svg>
