<?xml version="1.0" encoding="iso-8859-1"?>
<!-- Generator: Adobe Illustrator 19.0.0, SVG Export Plug-In . SVG Version: 6.00 Build 0)  -->
<svg version="1.1" id="Layer_1" xmlns="http://www.w3.org/2000/svg" xmlns:xlink="http://www.w3.org/1999/xlink" x="0px" y="0px"
	 viewBox="0 0 512 512" style="enable-background:new 0 0 512 512;" xml:space="preserve">
<g>
	<g>
		<path d="M461.554,74.997c-8.933-33.927-23.971-56.09-24.606-57.017L424.614,0l-72.622,85.024
			C318.018,74.699,282.174,73.263,256,73.263s-62.018,1.436-95.992,11.762L87.386,0L75.053,17.98
			c-0.636,0.927-15.674,23.09-24.606,57.017c-11.465,43.548-7.784,87.096,10.607,126.284c-0.569,5.869-0.869,11.91-0.869,18.134
			c0,44.977,10.322,72.655,23.391,107.695c4.388,11.764,8.923,23.927,13.627,38.165c12.107,36.644,26.729,74.414,51.543,102.418
			c23.446,26.46,53.182,41.041,90.541,44.308V404.392c-20.896-9.757-41.38-34.708-41.38-54.576
			c0-33.085,36.366-33.085,58.094-33.085s58.094,0,58.094,33.085c0,19.868-20.482,44.82-41.38,54.576V512
			c37.358-3.267,67.094-17.848,90.54-44.308c24.814-28.004,39.437-65.773,51.543-102.418c4.704-14.237,9.239-26.401,13.627-38.165
			c13.068-35.04,23.391-62.718,23.391-107.695c0-6.225-0.301-12.266-0.869-18.134C469.337,162.093,473.019,118.545,461.554,74.997z
			 M205.52,247.017c-10.975,0-19.906-9.097-19.906-20.317c0-11.223,8.931-20.312,19.906-20.312c10.989,0,19.918,9.089,19.918,20.312
			C225.438,237.92,216.508,247.017,205.52,247.017z M306.33,247.169c-11.08,0-20.069-9.165-20.069-20.47
			c0-11.305,8.989-20.47,20.069-20.47c11.067,0,20.056,9.164,20.056,20.47C326.386,238.004,317.398,247.169,306.33,247.169z"/>
	</g>
</g>
<g>
</g>
<g>
</g>
<g>
</g>
<g>
</g>
<g>
</g>
<g>
</g>
<g>
</g>
<g>
</g>
<g>
</g>
<g>
</g>
<g>
</g>
<g>
</g>
<g>
</g>
<g>
</g>
<g>
</g>
</svg>
